{
  "accessors": [
    {
      "bufferView": 0,
      "componentType": 5126,
      "count": 11134,
      "max": [
        95.52474212646484,
        17.9681339263916,
        202.5383758544922
      ],
      "min": [
        -94.72799682617188,
        -18.831499099731445,
        140.53599548339844
      ],
      "type": "VEC3"
    },
    {
      "bufferView": 1,
      "componentType": 5125,
      "count": 29527,
      "type": "SCALAR"
    },
    {
      "bufferView": 2,
      "componentType": 5126,
      "count": 11134,
      "type": "VEC3"
    },
    {
      "bufferView": 3,
      "componentType": 5126,
      "count": 11134,
      "type": "VEC4"
    },
    {
      "bufferView": 4,
      "componentType": 5126,
      "count": 11134,
      "type": "VEC2"
    },
    {
      "bufferView": 5,
      "componentType": 5126,
      "count": 11134,
      "max": [
        95.52474212646484,
        17.9681339263916,
        202.5383758544922
      ],
      "min": [
        -94.72799682617188,
        -18.831499099731445,
        140.53599548339844
      ],
      "type": "VEC3"
    },
    {
      "bufferView": 6,
      "componentType": 5125,
      "count": 1506,
      "type": "SCALAR"
    },
    {
      "bufferView": 7,
      "componentType": 5126,
      "count": 11134,
      "type": "VEC3"
    },
    {
      "bufferView": 8,
      "componentType": 5126,
      "count": 11134,
      "type": "VEC4"
    },
    {
      "bufferView": 9,
      "componentType": 5126,
      "count": 11134,
      "type": "VEC2"
    },
    {
      "bufferView": 10,
      "componentType": 5126,
      "count": 7771,
      "max": [
        22.930866241455078,
        21.112924575805664,
        205.75149536132813
      ],
      "min": [
        -22.082799911499023,
        -21.496299743652344,
        -2.4680399894714355
      ],
      "type": "VEC3"
    },
    {
      "bufferView": 11,
      "componentType": 5125,
      "count": 17326,
      "type": "SCALAR"
    },
    {
      "bufferView": 12,
      "componentType": 5126,
      "count": 7771,
      "type": "VEC3"
    },
    {
      "bufferView": 13,
      "componentType": 5126,
      "count": 7771,
      "type": "VEC4"
    },
    {
      "bufferView": 14,
      "componentType": 5126,
      "count": 7771,
      "type": "VEC2"
    },
    {
      "bufferView": 15,
      "componentType": 5126,
      "count": 7771,
      "max": [
        22.930866241455078,
        21.112924575805664,
        205.75149536132813
      ],
      "min": [
        -22.082799911499023,
        -21.496299743652344,
        -2.4680399894714355
      ],
      "type": "VEC3"
    },
    {
      "bufferView": 16,
      "componentType": 5125,
      "count": 1299,
      "type": "SCALAR"
    },
    {
      "bufferView": 17,
      "componentType": 5126,
      "count": 7771,
      "type": "VEC3"
    },
    {
      "bufferView": 18,
      "componentType": 5126,
      "count": 7771,
      "type": "VEC4"
    },
    {
      "bufferView": 19,
      "componentType": 5126,
      "count": 7771,
      "type": "VEC2"
    },
    {
      "bufferView": 20,
      "componentType": 5126,
      "count": 2942,
      "max": [
        52.6773681640625,
        17.5714054107666,
        166.3168182373047
      ],
      "min": [
        -51.145198822021484,
        -16.902099609375,
        98.16079711914063
      ],
      "type": "VEC3"
    },
    {
      "bufferView": 21,
      "componentType": 5125,
      "count": 7447,
      "type": "SCALAR"
    },
    {
      "bufferView": 22,
      "componentType": 5126,
      "count": 2942,
      "type": "VEC3"
    },
    {
      "bufferView": 23,
      "componentType": 5126,
      "count": 2942,
      "type": "VEC4"
    },
    {
      "bufferView": 24,
      "componentType": 5126,
      "count": 2942,
      "type": "VEC2"
    },
    {
      "bufferView": 25,
      "componentType": 5126,
      "count": 2942,
      "max": [
        52.6773681640625,
        17.5714054107666,
        166.3168182373047
      ],
      "min": [
        -51.145198822021484,
        -16.902099609375,
        98.16079711914063
      ],
      "type": "VEC3"
    },
    {
      "bufferView": 26,
      "componentType": 5125,
      "count": 273,
      "type": "SCALAR"
    },
    {
      "bufferView": 27,
      "componentType": 5126,
      "count": 2942,
      "type": "VEC3"
    },
    {
      "bufferView": 28,
      "componentType": 5126,
      "count": 2942,
      "type": "VEC4"
    },
    {
      "bufferView": 29,
      "componentType": 5126,
      "count": 2942,
      "type": "VEC2"
    }
  ],
  "asset": {
    "version": "2.0"
  },
  "bufferViews": [
    {
      "buffer": 0,
      "byteLength": 133608,
      "target": 34962
    },
    {
      "buffer": 1,
      "byteLength": 118108,
      "target": 34963
    },
    {
      "buffer": 2,
      "byteLength": 133608,
      "target": 34962
    },
    {
      "buffer": 3,
      "byteLength": 178144,
      "target": 34962
    },
    {
      "buffer": 4,
      "byteLength": 89072,
      "target": 34962
    },
    {
      "buffer": 0,
      "byteLength": 133608,
      "target": 34962
    },
    {
      "buffer": 5,
      "byteLength": 6024,
      "target": 34963
    },
    {
      "buffer": 2,
      "byteLength": 133608,
      "target": 34962
    },
    {
      "buffer": 3,
      "byteLength": 178144,
      "target": 34962
    },
    {
      "buffer": 4,
      "byteLength": 89072,
      "target": 34962
    },
    {
      "buffer": 6,
      "byteLength": 93252,
      "target": 34962
    },
    {
      "buffer": 7,
      "byteLength": 69304,
      "target": 34963
    },
    {
      "buffer": 8,
      "byteLength": 93252,
      "target": 34962
    },
    {
      "buffer": 9,
      "byteLength": 124336,
      "target": 34962
    },
    {
      "buffer": 10,
      "byteLength": 62168,
      "target": 34962
    },
    {
      "buffer": 6,
      "byteLength": 93252,
      "target": 34962
    },
    {
      "buffer": 11,
      "byteLength": 5196,
      "target": 34963
    },
    {
      "buffer": 8,
      "byteLength": 93252,
      "target": 34962
    },
    {
      "buffer": 9,
      "byteLength": 124336,
      "target": 34962
    },
    {
      "buffer": 10,
      "byteLength": 62168,
      "target": 34962
    },
    {
      "buffer": 12,
      "byteLength": 35304,
      "target": 34962
    },
    {
      "buffer": 13,
      "byteLength": 29788,
      "target": 34963
    },
    {
      "buffer": 14,
      "byteLength": 35304,
      "target": 34962
    },
    {
      "buffer": 15,
      "byteLength": 47072,
      "target": 34962
    },
    {
      "buffer": 16,
      "byteLength": 23536,
      "target": 34962
    },
    {
      "buffer": 12,
      "byteLength": 35304,
      "target": 34962
    },
    {
      "buffer": 17,
      "byteLength": 1092,
      "target": 34963
    },
    {
      "buffer": 14,
      "byteLength": 35304,
      "target": 34962
    },
    {
      "buffer": 15,
      "byteLength": 47072,
      "target": 34962
    },
    {
      "buffer": 16,
      "byteLength": 23536,
      "target": 34962
    }
  ],
  "buffers": [
    {
      "byteLength": 133608,
      "uri": "data:application/octet-stream;base64,"
    },
    {
      "byteLength": 118108,
      "uri": "data:application/octet-stream;base64,"
    },
    {
      "byteLength": 133608,
      "uri": "data:application/octet-stream;base64,"
    },
    {
      "byteLength": 178144,
      "uri": "data:application/octet-stream;base64,"
    },
    {
      "byteLength": 89072,
      "uri": "data:application/octet-stream;base64,"
    },
    {
      "byteLength": 6024,
      "uri": "data:application/octet-stream;base64,"
    },
    {
      "byteLength": 93252,
      "uri": "data:application/octet-stream;base64,"
    },
    {
      "byteLength": 69304,
      "uri": "data:application/octet-stream;base64,"
    },
    {
      "byteLength": 93252,
      "uri": "data:application/octet-stream;base64,"
    },
    {
      "byteLength": 124336,
      "uri": "data:application/octet-stream;base64,"
    },
    {
      "byteLength": 62168,
      "uri": "data:application/octet-stream;base64,"
    },
    {
      "byteLength": 5196,
      "uri": "data:application/octet-stream;base64,"
    },
    {
      "byteLength": 35304,
      "uri": "data:application/octet-stream;base64,"
    },
    {
      "byteLength": 29788,
      "uri": "data:application/octet-stream;base64,"
    },
    {
      "byteLength": 35304,
      "uri": "data:application/octet-stream;base64,"
    },
    {
      "byteLength": 47072,
      "uri": "data:application/octet-stream;base64,"
    },
    {
      "byteLength": 23536,
      "uri": "data:application/octet-stream;base64,"
    },
    {
      "byteLength": 1092,
      "uri": "data:application/octet-stream;base64,"
    }
  ],
  "extensionsUsed": [
    "KHR_materials_ior",
    "KHR_materials_emissive_strength"
  ],
  "images": [
    {
      "uri": "textures/boy_Packed0_Diffuse.comb.png"
    }
  ],
  "materials": [
    {
      "alphaMode": "BLEND",
      "doubleSided": true,
      "emissiveFactor": [
        0.20000000298023224,
        0.20000000298023224,
        0.20000000298023224
      ],
      "extensions": {
        "KHR_materials_emissive_strength": {
          "emissiveStrength": 0.0
        },
        "KHR_materials_ior": {
          "ior": 1.0499999523162842
        }
      },
      "name": "PackedMaterial0",
      "pbrMetallicRoughness": {
        "baseColorTexture": {
          "index": 0
        },
        "metallicFactor": 0.0,
        "roughnessFactor": 0.6
      }
    }
  ],
  "meshes": [
    {
      "primitives": [
        {
          "attributes": {
            "NORMAL": 2,
            "POSITION": 0,
            "TANGENT": 3,
            "TEXCOORD_0": 4
          },
          "indices": 1,
          "material": 0,
          "mode": 5
        },
        {
          "attributes": {
            "NORMAL": 7,
            "POSITION": 5,
            "TANGENT": 8,
            "TEXCOORD_0": 9
          },
          "indices": 6,
          "material": 0,
          "mode": 4
        }
      ]
    },
    {
      "primitives": [
        {
          "attributes": {
            "NORMAL": 12,
            "POSITION": 10,
            "TANGENT": 13,
            "TEXCOORD_0": 14
          },
          "indices": 11,
          "material": 0,
          "mode": 5
        },
        {
          "attributes": {
            "NORMAL": 17,
            "POSITION": 15,
            "TANGENT": 18,
            "TEXCOORD_0": 19
          },
          "indices": 16,
          "material": 0,
          "mode": 4
        }
      ]
    },
    {
      "primitives": [
        {
          "attributes": {
            "NORMAL": 22,
            "POSITION": 20,
            "TANGENT": 23,
            "TEXCOORD_0": 24
          },
          "indices": 21,
          "material": 0,
          "mode": 5
        },
        {
          "attributes": {
            "NORMAL": 27,
            "POSITION": 25,
            "TANGENT": 28,
            "TEXCOORD_0": 29
          },
          "indices": 26,
          "material": 0,
          "mode": 4
        }
      ]
    }
  ],
  "nodes": [
    {
      "mesh": 0,
      "name": "_gltfNode_0"
    },
    {
      "mesh": 1,
      "name": "_gltfNode_1"
    },
    {
      "mesh": 2,
      "name": "_gltfNode_2"
    },
    {
      "children": [
        0,
        1,
        2
      ],
      "name": "GLTF Converted Scene",
      "rotation": [
        -0.7071067811865475,
        0.0,
        0.0,
        0.7071067811865476
      ],
      "scale": [
        1.0,
        1.0,
        1.0
      ],
      "translation": [
        0.0,
        0.0,
        0.0
      ]
    }
  ],
  "samplers": [
    {
      "magFilter": 9729,
      "minFilter": 9987,
      "wrapS": 10497,
      "wrapT": 10497
    }
  ],
  "scene": 0,
  "scenes": [
    {
      "nodes": [
        3
      ]
    }
  ],
  "textures": [
    {
      "sampler": 0,
      "source": 0
    }
  ]
}
